<svg id="my-svg" width="100%" xmlns="http://www.w3.org/2000/svg" xmlns:xlink="http://www.w3.org/1999/xlink" class="statediagram" style="max-width: 1518.53px; background-color: transparent;" viewBox="0 -49 1518.53125 1286" role="graphics-document document" aria-roledescription="stateDiagram"><style>#my-svg{font-family:"trebuchet ms",verdana,arial,sans-serif;font-size:16px;fill:#333;}@keyframes edge-animation-frame{from{stroke-dashoffset:0;}}@keyframes dash{to{stroke-dashoffset:0;}}#my-svg .edge-animation-slow{stroke-dasharray:9,5!important;stroke-dashoffset:900;animation:dash 50s linear infinite;stroke-linecap:round;}#my-svg .edge-animation-fast{stroke-dasharray:9,5!important;stroke-dashoffset:900;animation:dash 20s linear infinite;stroke-linecap:round;}#my-svg .error-icon{fill:#552222;}#my-svg .error-text{fill:#552222;stroke:#552222;}#my-svg .edge-thickness-normal{stroke-width:1px;}#my-svg .edge-thickness-thick{stroke-width:3.5px;}#my-svg .edge-pattern-solid{stroke-dasharray:0;}#my-svg .edge-thickness-invisible{stroke-width:0;fill:none;}#my-svg .edge-pattern-dashed{stroke-dasharray:3;}#my-svg .edge-pattern-dotted{stroke-dasharray:2;}#my-svg .marker{fill:#333333;stroke:#333333;}#my-svg .marker.cross{stroke:#333333;}#my-svg svg{font-family:"trebuchet ms",verdana,arial,sans-serif;font-size:16px;}#my-svg p{margin:0;}#my-svg defs [id$="-barbEnd"]{fill:#333333;stroke:#333333;}#my-svg g.stateGroup text{fill:#9370DB;stroke:none;font-size:10px;}#my-svg g.stateGroup text{fill:#333;stroke:none;font-size:10px;}#my-svg g.stateGroup .state-title{font-weight:bolder;fill:#131300;}#my-svg g.stateGroup rect{fill:#ECECFF;stroke:#9370DB;}#my-svg g.stateGroup line{stroke:#333333;stroke-width:1;}#my-svg .transition{stroke:#333333;stroke-width:1;fill:none;}#my-svg .stateGroup .composit{fill:white;border-bottom:1px;}#my-svg .stateGroup .alt-composit{fill:#e0e0e0;border-bottom:1px;}#my-svg .state-note{stroke:#aaaa33;fill:#fff5ad;}#my-svg .state-note text{fill:black;stroke:none;font-size:10px;}#my-svg .stateLabel .box{stroke:none;stroke-width:0;fill:#ECECFF;opacity:0.5;}#my-svg .edgeLabel .label rect{fill:#ECECFF;opacity:0.5;}#my-svg .edgeLabel{background-color:rgba(232,232,232, 0.8);text-align:center;}#my-svg .edgeLabel p{background-color:rgba(232,232,232, 0.8);}#my-svg .edgeLabel rect{opacity:0.5;background-color:rgba(232,232,232, 0.8);fill:rgba(232,232,232, 0.8);}#my-svg .edgeLabel .label text{fill:#333;}#my-svg .label div .edgeLabel{color:#333;}#my-svg .stateLabel text{fill:#131300;font-size:10px;font-weight:bold;}#my-svg .node circle.state-start{fill:#333333;stroke:#333333;}#my-svg .node .fork-join{fill:#333333;stroke:#333333;}#my-svg .node circle.state-end{fill:#9370DB;stroke:white;stroke-width:1.5;}#my-svg .end-state-inner{fill:white;stroke-width:1.5;}#my-svg .node rect{fill:#ECECFF;stroke:#9370DB;stroke-width:1px;}#my-svg .node polygon{fill:#ECECFF;stroke:#9370DB;stroke-width:1px;}#my-svg [id$="-barbEnd"]{fill:#333333;}#my-svg .statediagram-cluster rect{fill:#ECECFF;stroke:#9370DB;stroke-width:1px;}#my-svg .cluster-label,#my-svg .nodeLabel{color:#131300;}#my-svg .statediagram-cluster rect.outer{rx:5px;ry:5px;}#my-svg .statediagram-state .divider{stroke:#9370DB;}#my-svg .statediagram-state .title-state{rx:5px;ry:5px;}#my-svg .statediagram-cluster.statediagram-cluster .inner{fill:white;}#my-svg .statediagram-cluster.statediagram-cluster-alt .inner{fill:#f0f0f0;}#my-svg .statediagram-cluster .inner{rx:0;ry:0;}#my-svg .statediagram-state rect.basic{rx:5px;ry:5px;}#my-svg .statediagram-state rect.divider{stroke-dasharray:10,10;fill:#f0f0f0;}#my-svg .note-edge{stroke-dasharray:5;}#my-svg .statediagram-note rect{fill:#fff5ad;stroke:#aaaa33;stroke-width:1px;rx:0;ry:0;}#my-svg .statediagram-note rect{fill:#fff5ad;stroke:#aaaa33;stroke-width:1px;rx:0;ry:0;}#my-svg .statediagram-note text{fill:black;}#my-svg .statediagram-note .nodeLabel{color:black;}#my-svg .statediagram .edgeLabel{color:red;}#my-svg [id$="-dependencyStart"],#my-svg [id$="-dependencyEnd"]{fill:#333333;stroke:#333333;stroke-width:1;}#my-svg .statediagramTitleText{text-anchor:middle;font-size:18px;fill:#333;}#my-svg [data-look="neo"].statediagram-cluster rect{fill:#ECECFF;stroke:#9370DB;stroke-width:1;}#my-svg [data-look="neo"].statediagram-cluster rect.outer{rx:5px;ry:5px;filter:drop-shadow(1px 2px 2px rgba(185, 185, 185, 1));}#my-svg .node .neo-node{stroke:#9370DB;}#my-svg [data-look="neo"].node rect,#my-svg [data-look="neo"].cluster rect,#my-svg [data-look="neo"].node polygon{stroke:#9370DB;filter:drop-shadow(1px 2px 2px rgba(185, 185, 185, 1));}#my-svg [data-look="neo"].swimlane.cluster rect{filter:none;}#my-svg [data-look="neo"].node path{stroke:#9370DB;stroke-width:1px;}#my-svg [data-look="neo"].node .outer-path{filter:drop-shadow(1px 2px 2px rgba(185, 185, 185, 1));}#my-svg [data-look="neo"].node .neo-line path{stroke:#9370DB;filter:none;}#my-svg [data-look="neo"].node circle{stroke:#9370DB;filter:drop-shadow(1px 2px 2px rgba(185, 185, 185, 1));}#my-svg [data-look="neo"].node circle .state-start{fill:#000000;}#my-svg [data-look="neo"].icon-shape .icon{fill:#9370DB;filter:drop-shadow(1px 2px 2px rgba(185, 185, 185, 1));}#my-svg [data-look="neo"].icon-shape .icon-neo path{stroke:#9370DB;filter:drop-shadow(1px 2px 2px rgba(185, 185, 185, 1));}#my-svg :root{--mermaid-font-family:"trebuchet ms",verdana,arial,sans-serif;}</style><g><defs><marker id="my-svg_stateDiagram-barbEnd" refX="19" refY="7" markerWidth="20" markerHeight="14" markerUnits="userSpaceOnUse" orient="auto"><path d="M 19,7 L9,13 L14,7 L9,1 Z"/></marker></defs><g class="root"><g class="clusters"><g class="statediagram-state statediagram-cluster" id="my-svg-state-Created-18" data-id="Created" data-look="classic"><g><rect class="outer" x="226.484375" y="96" width="152" height="64" data-look="classic"/></g><g class="cluster-label" transform="translate(274.0234375, 97)"><foreignObject width="56.921875" height="24"><div xmlns="http://www.w3.org/1999/xhtml" style="display: table-cell; white-space: nowrap; line-height: 1.5;"><span class="nodeLabel"><p>Created</p></span></div></foreignObject></g><rect class="inner" x="226.484375" y="122" width="152" height="34"/></g><g class="statediagram-state statediagram-cluster" id="my-svg-state-Registration-19" data-id="Registration" data-look="classic"><g><rect class="outer" x="398.484375" y="96" width="1112.046875" height="203" data-look="classic"/></g><g class="cluster-label" transform="translate(911.8203125, 97)"><foreignObject width="85.375" height="24"><div xmlns="http://www.w3.org/1999/xhtml" style="display: table-cell; white-space: nowrap; line-height: 1.5;"><span class="nodeLabel"><p>Registration</p></span></div></foreignObject></g><rect class="inner" x="398.484375" y="122" width="1112.046875" height="173"/></g><g class="note-cluster" id="my-svg-state-Registration----parent-19"><rect x="8" y="373" width="300" height="254" fill="none"/></g><g class="note-cluster" id="my-svg-state-Voting----parent-20"><rect x="181.9609375" y="701" width="292.078125" height="254" fill="none"/></g><g class="note-cluster" id="my-svg-state-Ended----parent-21"><rect x="670.8125" y="1005" width="300" height="224" fill="none"/></g></g><g class="edgePaths"><path d="M307.484,135L307.484,139.167C307.484,143.333,307.484,151.667,371.54,162C435.595,172.333,563.706,184.667,617.216,197C670.726,209.333,649.635,221.667,639.09,227.833L628.545,234" id="my-svg-edge1" class="edge-thickness-normal edge-pattern-solid transition" style="fill:none;;;fill:none" data-edge="true" data-et="edge" data-id="edge1" data-points="W3sieCI6MzA3LjQ4NDM3NSwieSI6MTM1fSx7IngiOjMwNy40ODQzNzUsInkiOjE2MH0seyJ4Ijo2OTEuODE2NDA2MjUsInkiOjE5N30seyJ4Ijo2MjguNTQ0NjgyMDE3NTQzOSwieSI6MjM0fV0=" data-look="classic" marker-end="url(#my-svg_stateDiagram-barbEnd)"/><path d="M311.194,133.936L313.909,138.28C316.624,142.624,322.054,151.312,419.132,161.823C516.21,172.333,704.935,184.667,788.006,197C871.077,209.333,848.494,221.667,837.202,227.833L825.91,234" id="my-svg-edge2" class="edge-thickness-normal edge-pattern-solid transition" style="fill:none;;;fill:none" data-edge="true" data-et="edge" data-id="edge2" data-points="W3sieCI6MzExLjE5NDM2NzU4MDAyMjMsInkiOjEzMy45MzU5ODgxMjgwMzU2fSx7IngiOjMyNy40ODQzNzUsInkiOjE2MH0seyJ4Ijo4OTMuNjYwMTU2MjUsInkiOjE5N30seyJ4Ijo4MjUuOTEwNDk4OTAzNTA4OCwieSI6MjM0fV0=" data-look="classic" marker-end="url(#my-svg_stateDiagram-barbEnd)"/><path d="M312.95,132.373L318.706,136.977C324.462,141.582,335.973,150.791,469.697,161.562C603.421,172.333,859.357,184.667,976.802,197C1094.248,209.333,1073.203,221.667,1062.681,227.833L1052.158,234" id="my-svg-edge3" class="edge-thickness-normal edge-pattern-solid transition" style="fill:none;;;fill:none" data-edge="true" data-et="edge" data-id="edge3" data-points="W3sieCI6MzEyLjk1MDQ1NjY2NjEwMTIsInkiOjEzMi4zNzI4NjUzMzI4ODA5Nn0seyJ4IjozNDcuNDg0Mzc1LCJ5IjoxNjB9LHsieCI6MTExNS4yOTI5Njg3NSwieSI6MTk3fSx7IngiOjEwNTIuMTU4MTY4ODU5NjQ5LCJ5IjoyMzR9XQ==" data-look="classic" marker-end="url(#my-svg_stateDiagram-barbEnd)"/><path d="M1118.719,129.795L1137.692,134.829C1156.664,139.863,1194.609,149.932,1213.582,161.133C1232.555,172.333,1232.555,184.667,1232.555,197C1232.555,209.333,1232.555,221.667,1232.555,227.833L1232.555,234" id="my-svg-edge5" class="edge-thickness-normal edge-pattern-solid transition" style="fill:none;;;fill:none" data-edge="true" data-et="edge" data-id="edge5" data-points="W3sieCI6MTExOC43MTkwMDQ5MTA2MDc3LCJ5IjoxMjkuNzk1MjM1MDkxOTEyMjh9LHsieCI6MTIzMi41NTQ2ODc1LCJ5IjoxNjB9LHsieCI6MTIzMi41NTQ2ODc1LCJ5IjoxOTd9LHsieCI6MTIzMi41NTQ2ODc1LCJ5IjoyMzR9XQ==" data-look="classic" marker-end="url(#my-svg_stateDiagram-barbEnd)"/><path d="M1104.966,128.43L1019.527,133.692C934.087,138.954,763.208,149.477,677.768,160.905C592.328,172.333,592.328,184.667,592.546,197C592.764,209.333,593.2,221.667,593.418,227.833L593.637,234" id="my-svg-edge6" class="edge-thickness-normal edge-pattern-solid transition" style="fill:none;;;fill:none" data-edge="true" data-et="edge" data-id="edge6" data-points="W3sieCI6MTEwNC45NjYzNjA5Mzk5NDA0LCJ5IjoxMjguNDMwMjY0OTk4NjQ2OTJ9LHsieCI6NTkyLjMyODEyNSwieSI6MTYwfSx7IngiOjU5Mi4zMjgxMjUsInkiOjE5N30seyJ4Ijo1OTMuNjM2NTEzMTU3ODk0NywieSI6MjM0fV0=" data-look="classic" marker-end="url(#my-svg_stateDiagram-barbEnd)"/><path d="M1104.975,128.558L1039.449,133.798C973.922,139.039,842.869,149.519,777.343,160.926C711.816,172.333,711.816,184.667,720.198,197C728.579,209.333,745.343,221.667,753.724,227.833L762.106,234" id="my-svg-edge7" class="edge-thickness-normal edge-pattern-solid transition" style="fill:none;;;fill:none" data-edge="true" data-et="edge" data-id="edge7" data-points="W3sieCI6MTEwNC45NzU0MDI4OTEzMDI4LCJ5IjoxMjguNTU4MDI3MDM2Nzk4NDJ9LHsieCI6NzExLjgxNjQwNjI1LCJ5IjoxNjB9LHsieCI6NzExLjgxNjQwNjI1LCJ5IjoxOTd9LHsieCI6NzYyLjEwNTY3NDM0MjEwNTMsInkiOjIzNH1d" data-look="classic" marker-end="url(#my-svg_stateDiagram-barbEnd)"/><path d="M1105.043,129.115L1073.145,134.263C1041.248,139.41,977.454,149.705,945.557,161.019C913.66,172.333,913.66,184.667,924.952,197C936.243,209.333,958.827,221.667,970.118,227.833L981.41,234" id="my-svg-edge8" class="edge-thickness-normal edge-pattern-solid transition" style="fill:none;;;fill:none" data-edge="true" data-et="edge" data-id="edge8" data-points="W3sieCI6MTEwNS4wNDI1MzE3NTYwNTUsInkiOjEyOS4xMTUyMTM0Mzk5OTM2Mn0seyJ4Ijo5MTMuNjYwMTU2MjUsInkiOjE2MH0seyJ4Ijo5MTMuNjYwMTU2MjUsInkiOjE5N30seyJ4Ijo5ODEuNDA5ODEzNTk2NDkxMiwieSI6MjM0fV0=" data-look="classic" marker-end="url(#my-svg_stateDiagram-barbEnd)"/><path d="M1118.914,128.736L1168.198,133.947C1217.482,139.157,1316.05,149.579,1365.333,160.956C1414.617,172.333,1414.617,184.667,1414.617,197C1414.617,209.333,1414.617,221.667,1414.617,227.833L1414.617,234" id="my-svg-edge9" class="edge-thickness-normal edge-pattern-solid transition" style="fill:none;;;fill:none" data-edge="true" data-et="edge" data-id="edge9" data-points="W3sieCI6MTExOC45MTQzMjU3MDk1NTM0LCJ5IjoxMjguNzM1OTkyMzEwNjM1NX0seyJ4IjoxNDE0LjYxNzE4NzUsInkiOjE2MH0seyJ4IjoxNDE0LjYxNzE4NzUsInkiOjE5N30seyJ4IjoxNDE0LjYxNzE4NzUsInkiOjIzNH1d" data-look="classic" marker-end="url(#my-svg_stateDiagram-barbEnd)"/><path d="M307.484,22L307.484,28.167C307.484,34.333,307.484,46.667,307.484,59C307.484,71.333,307.484,83.667,307.484,89.833L307.484,96" id="my-svg-edge0" class="edge-thickness-normal edge-pattern-solid transition" style="fill:none;;;fill:none" data-edge="true" data-et="edge" data-id="edge0" data-points="W3sieCI6MzA3LjQ4NDM3NSwieSI6MjJ9LHsieCI6MzA3LjQ4NDM3NSwieSI6NTl9LHsieCI6MzA3LjQ4NDM3NSwieSI6OTZ9LHsieCI6MzA3LjQ4NDM3NSwieSI6MTIxfV0=" data-look="classic" marker-end="url(#my-svg_stateDiagram-barbEnd)"/><path d="M287.484,160L398.484,177.247" id="my-svg-edge4" class="edge-thickness-normal edge-pattern-solid transition" style="fill:none;;;fill:none" data-edge="true" data-et="edge" data-id="edge4" data-points="W3sieCI6MzAzLjc3NDM4MjQxOTk3NzcsInkiOjEzMy45MzU5ODgxMjgwMzU2fSx7IngiOjI4Ny40ODQzNzUsInkiOjE2MH0seyJ4Ijo0OTUuNDA2MjUsInkiOjE5N30seyJ4Ijo1NTkuNjI4ODM3NzE5Mjk4MiwieSI6MjM0fV0=" data-look="classic" marker-end="url(#my-svg_stateDiagram-barbEnd)"/><path d="M1042.438,299L1042.438,305.167C1042.438,311.333,1042.438,323.667,1042.438,336C1042.438,348.333,1042.438,360.667,1042.438,371C1042.438,381.333,1042.438,389.667,1042.438,393.833L1042.438,398" id="my-svg-edge10" class="edge-thickness-normal edge-pattern-solid transition" style="fill:none;;;fill:none" data-edge="true" data-et="edge" data-id="edge10" data-points="W3sieCI6NjUzLjkyMTg3NSwieSI6MjU5Ljk4MzE1NzgyMTMyNjV9LHsieCI6MTA0Mi40Mzc1LCJ5IjoyOTl9LHsieCI6MTA0Mi40Mzc1LCJ5IjozMzZ9LHsieCI6MTA0Mi40Mzc1LCJ5IjozNzN9LHsieCI6MTA0Mi40Mzc1LCJ5IjozOTh9XQ==" data-look="classic" marker-end="url(#my-svg_stateDiagram-barbEnd)"/><path d="M1042.438,602L1042.438,606.167C1042.438,610.333,1042.438,618.667,1042.438,629C1042.438,639.333,1042.438,651.667,1042.438,664C1042.438,676.333,1042.438,688.667,1035.166,699C1027.895,709.333,1013.353,717.667,1006.082,721.833L998.811,726" id="my-svg-edge14" class="edge-thickness-normal edge-pattern-solid transition" style="fill:none;;;fill:none" data-edge="true" data-et="edge" data-id="edge14" data-points="W3sieCI6MTA0Mi40Mzc1LCJ5Ijo2MDJ9LHsieCI6MTA0Mi40Mzc1LCJ5Ijo2Mjd9LHsieCI6MTA0Mi40Mzc1LCJ5Ijo2NjR9LHsieCI6MTA0Mi40Mzc1LCJ5Ijo3MDF9LHsieCI6OTk4LjgxMDUzMTQ5NjA2MywieSI6NzI2fV0=" data-look="classic" marker-end="url(#my-svg_stateDiagram-barbEnd)"/><path d="M689.589,726L684.228,721.833C678.868,717.667,668.147,709.333,662.786,699C657.426,688.667,657.426,676.333,657.426,664C657.426,651.667,657.426,639.333,657.426,612C657.426,584.667,657.426,542.333,657.426,500C657.426,457.667,657.426,415.333,657.426,388C657.426,360.667,657.426,348.333,592.436,336C527.445,323.667,397.465,311.333,332.475,297.667C267.484,284,267.484,269,267.484,252C267.484,235,267.484,216,267.484,200.333C267.484,184.667,267.484,172.333,267.484,166.167L267.484,160" id="my-svg-edge18" class="edge-thickness-normal edge-pattern-solid transition" style="fill:none;;;fill:none" data-edge="true" data-et="edge" data-id="edge18" data-points="W3sieCI6Njg5LjU4ODUyMTE2MTQxNzQsInkiOjcyNn0seyJ4Ijo2NTcuNDI1NzgxMjUsInkiOjcwMX0seyJ4Ijo2NTcuNDI1NzgxMjUsInkiOjY2NH0seyJ4Ijo2NTcuNDI1NzgxMjUsInkiOjYyN30seyJ4Ijo2NTcuNDI1NzgxMjUsInkiOjUwMH0seyJ4Ijo2NTcuNDI1NzgxMjUsInkiOjM3M30seyJ4Ijo2NTcuNDI1NzgxMjUsInkiOjMzNn0seyJ4IjoyNjcuNDg0Mzc1LCJ5IjoyOTl9LHsieCI6MjY3LjQ4NDM3NSwieSI6MjU0fSx7IngiOjI2Ny40ODQzNzUsInkiOjE5N30seyJ4IjoyNjcuNDg0Mzc1LCJ5IjoxNjB9LHsieCI6MzAwLjQ4NDM3NSwieSI6MTMzLjZ9XQ==" data-look="classic" marker-end="url(#my-svg_stateDiagram-barbEnd)"/><path d="M515.406,299L455.839,305.167C396.271,311.333,277.135,323.667,217.568,336C158,348.333,158,360.667,158,375.5C158,390.333,158,407.667,158,416.333L158,425" id="my-svg-Registration-Registration----note-19" class="edge-thickness-normal edge-pattern-solid transition note-edge" style="fill:none;;;fill:none" data-edge="true" data-et="edge" data-id="Registration-Registration----note-19" data-points="W3sieCI6NTU5LjI2MDQxNjY2NjY2NjYsInkiOjI3NH0seyJ4Ijo1MTUuNDA2MjUsInkiOjI5OX0seyJ4IjoxNTgsInkiOjMzNn0seyJ4IjoxNTgsInkiOjM3M30seyJ4IjoxNTgsInkiOjQyNX1d" data-look="classic"/><path d="M840.031,535.98L754.693,551.15C669.354,566.32,498.677,596.66,413.339,617.997C328,639.333,328,651.667,328,664C328,676.333,328,688.667,328,707.5C328,726.333,328,751.667,328,764.333L328,777" id="my-svg-Voting-Voting----note-20" class="edge-thickness-normal edge-pattern-solid transition note-edge" style="fill:none;;;fill:none" data-edge="true" data-et="edge" data-id="Voting-Voting----note-20" data-points="W3sieCI6ODQwLjAzMTI1LCJ5Ijo1MzUuOTgwMTg1NDYwNTg5Nn0seyJ4IjozMjgsInkiOjYyN30seyJ4IjozMjgsInkiOjY2NH0seyJ4IjozMjgsInkiOjcwMX0seyJ4IjozMjgsInkiOjc3N31d" data-look="classic"/><path d="M820.813,930L820.813,934.167C820.813,938.333,820.813,946.667,820.813,955C820.813,963.333,820.813,971.667,820.813,980C820.813,988.333,820.813,996.667,820.813,1005C820.813,1013.333,820.813,1021.667,820.813,1025.833L820.813,1030" id="my-svg-Ended-Ended----note-21" class="edge-thickness-normal edge-pattern-solid transition note-edge" style="fill:none;;;fill:none" data-edge="true" data-et="edge" data-id="Ended-Ended----note-21" data-points="W3sieCI6ODIwLjgxMjUsInkiOjkzMH0seyJ4Ijo4MjAuODEyNSwieSI6OTU1fSx7IngiOjgyMC44MTI1LCJ5Ijo5ODB9LHsieCI6ODIwLjgxMjUsInkiOjEwMDV9LHsieCI6ODIwLjgxMjUsInkiOjEwMzB9XQ==" data-look="classic"/></g><g class="edgeLabels"><g class="edgeLabel"><g class="label" data-id="edge1" transform="translate(0, 0)"><foreignObject width="0" height="0"><div xmlns="http://www.w3.org/1999/xhtml" class="labelBkg" style="display: table-cell; white-space: nowrap; line-height: 1.5; max-width: 200px; text-align: center;"><span class="edgeLabel"></span></div></foreignObject></g></g><g class="edgeLabel"><g class="label" data-id="edge2" transform="translate(0, 0)"><foreignObject width="0" height="0"><div xmlns="http://www.w3.org/1999/xhtml" class="labelBkg" style="display: table-cell; white-space: nowrap; line-height: 1.5; max-width: 200px; text-align: center;"><span class="edgeLabel"></span></div></foreignObject></g></g><g class="edgeLabel"><g class="label" data-id="edge3" transform="translate(0, 0)"><foreignObject width="0" height="0"><div xmlns="http://www.w3.org/1999/xhtml" class="labelBkg" style="display: table-cell; white-space: nowrap; line-height: 1.5; max-width: 200px; text-align: center;"><span class="edgeLabel"></span></div></foreignObject></g></g><g class="edgeLabel"><g class="label" data-id="edge5" transform="translate(0, 0)"><foreignObject width="0" height="0"><div xmlns="http://www.w3.org/1999/xhtml" class="labelBkg" style="display: table-cell; white-space: nowrap; line-height: 1.5; max-width: 200px; text-align: center;"><span class="edgeLabel"></span></div></foreignObject></g></g><g class="edgeLabel"><g class="label" data-id="edge6" transform="translate(0, 0)"><foreignObject width="0" height="0"><div xmlns="http://www.w3.org/1999/xhtml" class="labelBkg" style="display: table-cell; white-space: nowrap; line-height: 1.5; max-width: 200px; text-align: center;"><span class="edgeLabel"></span></div></foreignObject></g></g><g class="edgeLabel"><g class="label" data-id="edge7" transform="translate(0, 0)"><foreignObject width="0" height="0"><div xmlns="http://www.w3.org/1999/xhtml" class="labelBkg" style="display: table-cell; white-space: nowrap; line-height: 1.5; max-width: 200px; text-align: center;"><span class="edgeLabel"></span></div></foreignObject></g></g><g class="edgeLabel"><g class="label" data-id="edge8" transform="translate(0, 0)"><foreignObject width="0" height="0"><div xmlns="http://www.w3.org/1999/xhtml" class="labelBkg" style="display: table-cell; white-space: nowrap; line-height: 1.5; max-width: 200px; text-align: center;"><span class="edgeLabel"></span></div></foreignObject></g></g><g class="edgeLabel"><g class="label" data-id="edge9" transform="translate(0, 0)"><foreignObject width="0" height="0"><div xmlns="http://www.w3.org/1999/xhtml" class="labelBkg" style="display: table-cell; white-space: nowrap; line-height: 1.5; max-width: 200px; text-align: center;"><span class="edgeLabel"></span></div></foreignObject></g></g><g class="edgeLabel" transform="translate(307.484375, 59)"><g class="label" data-id="edge0" transform="translate(-64.9296875, -12)"><foreignObject width="129.859375" height="24"><div xmlns="http://www.w3.org/1999/xhtml" class="labelBkg" style="display: table-cell; white-space: nowrap; line-height: 1.5; max-width: 200px; text-align: center;"><span class="edgeLabel"><p>Contract deployed</p></span></div></foreignObject></g></g><g class="edgeLabel" transform="translate(342.98438, 168.62369)"><g class="label" data-id="edge4" transform="translate(-76.921875, -12)"><foreignObject width="153.84375" height="24"><div xmlns="http://www.w3.org/1999/xhtml" class="labelBkg" style="display: table-cell; white-space: nowrap; line-height: 1.5; max-width: 200px; text-align: center;"><span class="edgeLabel"><p>startRegistration(end)</p></span></div></foreignObject></g></g><g class="edgeLabel" transform="translate(1042.4375, 348.5)"><g class="label" data-id="edge10" transform="translate(-56.4765625, -12)"><foreignObject width="112.953125" height="24"><div xmlns="http://www.w3.org/1999/xhtml" class="labelBkg" style="display: table-cell; white-space: nowrap; line-height: 1.5; max-width: 200px; text-align: center;"><span class="edgeLabel"><p>startVoting(end)</p></span></div></foreignObject></g></g><g class="edgeLabel" transform="translate(1042.4375, 664)"><g class="label" data-id="edge14" transform="translate(-47.140625, -12)"><foreignObject width="94.28125" height="24"><div xmlns="http://www.w3.org/1999/xhtml" class="labelBkg" style="display: table-cell; white-space: nowrap; line-height: 1.5; max-width: 200px; text-align: center;"><span class="edgeLabel"><p>endElection()</p></span></div></foreignObject></g></g><g class="edgeLabel" transform="translate(595.22684, 330.09819)"><g class="label" data-id="edge18" transform="translate(-65.3515625, -12)"><foreignObject width="130.703125" height="24"><div xmlns="http://www.w3.org/1999/xhtml" class="labelBkg" style="display: table-cell; white-space: nowrap; line-height: 1.5; max-width: 200px; text-align: center;"><span class="edgeLabel"><p>startNewElection()</p></span></div></foreignObject></g></g><g class="edgeLabel"><g class="label" data-id="Registration-Registration----note-19" transform="translate(0, 0)"><foreignObject width="0" height="0"><div xmlns="http://www.w3.org/1999/xhtml" class="labelBkg" style="display: table-cell; white-space: nowrap; line-height: 1.5; max-width: 200px; text-align: center;"><span class="edgeLabel"></span></div></foreignObject></g></g><g class="edgeLabel"><g class="label" data-id="Voting-Voting----note-20" transform="translate(0, 0)"><foreignObject width="0" height="0"><div xmlns="http://www.w3.org/1999/xhtml" class="labelBkg" style="display: table-cell; white-space: nowrap; line-height: 1.5; max-width: 200px; text-align: center;"><span class="edgeLabel"></span></div></foreignObject></g></g><g class="edgeLabel"><g class="label" data-id="Ended-Ended----note-21" transform="translate(0, 0)"><foreignObject width="0" height="0"><div xmlns="http://www.w3.org/1999/xhtml" class="labelBkg" style="display: table-cell; white-space: nowrap; line-height: 1.5; max-width: 200px; text-align: center;"><span class="edgeLabel"></span></div></foreignObject></g></g></g><g class="nodes"><g class="node default" id="my-svg-state-root_start-0" data-look="classic" transform="translate(307.484375, 15)"><circle class="state-start" r="7" width="14" height="14"/></g><g class="node default" id="my-svg-state-Created_start-3" data-look="classic" transform="translate(307.484375, 128)"><circle class="state-start" r="7" width="14" height="14"/></g><g class="node  statediagram-state" id="my-svg-state-setMerkleRoot-6" data-look="classic" transform="translate(594.34375, 254)"><rect class="basic label-container" style="" rx="5" ry="5" x="-59.578125" y="-20" width="119.15625" height="40"/><g class="label" style="" transform="translate(-51.578125, -12)"><rect/><foreignObject width="103.15625" height="24"><div xmlns="http://www.w3.org/1999/xhtml" style="display: table-cell; white-space: nowrap; line-height: 1.5; max-width: 200px; text-align: center;"><span class="nodeLabel markdown-node-label"><p>setMerkleRoot</p></span></div></foreignObject></g></g><g class="node  statediagram-state" id="my-svg-state-setIdentityMerkleRoot-7" data-look="classic" transform="translate(789.2890625, 254)"><rect class="basic label-container" style="" rx="5" ry="5" x="-85.3671875" y="-20" width="170.734375" height="40"/><g class="label" style="" transform="translate(-77.3671875, -12)"><rect/><foreignObject width="154.734375" height="24"><div xmlns="http://www.w3.org/1999/xhtml" style="display: table-cell; white-space: nowrap; line-height: 1.5; max-width: 200px; text-align: center;"><span class="nodeLabel markdown-node-label"><p>setIdentityMerkleRoot</p></span></div></foreignObject></g></g><g class="node  statediagram-state" id="my-svg-state-setRegCodeMerkleRoot-8" data-look="classic" transform="translate(1018.03125, 254)"><rect class="basic label-container" style="" rx="5" ry="5" x="-93.375" y="-20" width="186.75" height="40"/><g class="label" style="" transform="translate(-85.375, -12)"><rect/><foreignObject width="170.75" height="24"><div xmlns="http://www.w3.org/1999/xhtml" style="display: table-cell; white-space: nowrap; line-height: 1.5; max-width: 200px; text-align: center;"><span class="nodeLabel markdown-node-label"><p>setRegCodeMerkleRoot</p></span></div></foreignObject></g></g><g class="node default" id="my-svg-state-Registration_start-9" data-look="classic" transform="translate(1111.953125, 128)"><circle class="state-start" r="7" width="14" height="14"/></g><g class="node  statediagram-state" id="my-svg-state-registerCandidate-5" data-look="classic" transform="translate(1232.5546875, 254)"><rect class="basic label-container" style="" rx="5" ry="5" x="-71.1484375" y="-20" width="142.296875" height="40"/><g class="label" style="" transform="translate(-63.1484375, -12)"><rect/><foreignObject width="126.296875" height="24"><div xmlns="http://www.w3.org/1999/xhtml" style="display: table-cell; white-space: nowrap; line-height: 1.5; max-width: 200px; text-align: center;"><span class="nodeLabel markdown-node-label"><p>registerCandidate</p></span></div></foreignObject></g></g><g class="node  statediagram-state" id="my-svg-state-verifyRegCode-9" data-look="classic" transform="translate(1414.6171875, 254)"><rect class="basic label-container" style="" rx="5" ry="5" x="-60.9140625" y="-20" width="121.828125" height="40"/><g class="label" style="" transform="translate(-52.9140625, -12)"><rect/><foreignObject width="105.828125" height="24"><div xmlns="http://www.w3.org/1999/xhtml" style="display: table-cell; white-space: nowrap; line-height: 1.5; max-width: 200px; text-align: center;"><span class="nodeLabel markdown-node-label"><p>verifyRegCode</p></span></div></foreignObject></g></g><g class="root" transform="translate(832.03125, 390)"><g class="clusters"><g class="statediagram-state statediagram-cluster" id="my-svg-state-Voting-20" data-id="Voting" data-look="classic"><g><rect class="outer" x="8" y="8" width="404.8125" height="204" data-look="classic"/></g><g class="cluster-label" transform="translate(188.1640625, 9)"><foreignObject width="44.484375" height="24"><div xmlns="http://www.w3.org/1999/xhtml" style="display: table-cell; white-space: nowrap; line-height: 1.5;"><span class="nodeLabel"><p>Voting</p></span></div></foreignObject></g><rect class="inner" x="8" y="34" width="404.8125" height="174"/></g></g><g class="edgePaths"><path d="M186.996,55.088L169.445,62.074C151.893,69.059,116.79,83.029,99.239,96.265C81.688,109.5,81.688,122,81.688,128.25L81.688,134.5" id="my-svg-edge11" class="edge-thickness-normal edge-pattern-solid transition" style="fill:none;;;fill:none" data-edge="true" data-et="edge" data-id="edge11" data-points="W3sieCI6MTg2Ljk5NjE1OTk3MDM4MDc1LCJ5Ijo1NS4wODg0NDgzNTE2NDI3N30seyJ4Ijo4MS42ODc1LCJ5Ijo5N30seyJ4Ijo4MS42ODc1LCJ5IjoxMzQuNX1d" data-look="classic" marker-end="url(#my-svg_stateDiagram-barbEnd)"/><path d="M193.5,59.5L193.5,65.75C193.5,72,193.5,84.5,193.5,97C193.5,109.5,193.5,122,193.5,128.25L193.5,134.5" id="my-svg-edge12" class="edge-thickness-normal edge-pattern-solid transition" style="fill:none;;;fill:none" data-edge="true" data-et="edge" data-id="edge12" data-points="W3sieCI6MTkzLjUsInkiOjU5LjV9LHsieCI6MTkzLjUsInkiOjk3fSx7IngiOjE5My41LCJ5IjoxMzQuNX1d" data-look="classic" marker-end="url(#my-svg_stateDiagram-barbEnd)"/><path d="M200.116,54.787L220.466,61.823C240.817,68.858,281.518,82.929,301.868,96.215C322.219,109.5,322.219,122,322.219,128.25L322.219,134.5" id="my-svg-edge13" class="edge-thickness-normal edge-pattern-solid transition" style="fill:none;;;fill:none" data-edge="true" data-et="edge" data-id="edge13" data-points="W3sieCI6MjAwLjExNTc5OTUwNzEzNDA2LCJ5Ijo1NC43ODcxODA5OTAwODQ3fSx7IngiOjMyMi4yMTg3NSwieSI6OTd9LHsieCI6MzIyLjIxODc1LCJ5IjoxMzQuNX1d" data-look="classic" marker-end="url(#my-svg_stateDiagram-barbEnd)"/></g><g class="edgeLabels"><g class="edgeLabel"><g class="label" data-id="edge11" transform="translate(0, 0)"><foreignObject width="0" height="0"><div xmlns="http://www.w3.org/1999/xhtml" class="labelBkg" style="display: table-cell; white-space: nowrap; line-height: 1.5; max-width: 200px; text-align: center;"><span class="edgeLabel"></span></div></foreignObject></g></g><g class="edgeLabel"><g class="label" data-id="edge12" transform="translate(0, 0)"><foreignObject width="0" height="0"><div xmlns="http://www.w3.org/1999/xhtml" class="labelBkg" style="display: table-cell; white-space: nowrap; line-height: 1.5; max-width: 200px; text-align: center;"><span class="edgeLabel"></span></div></foreignObject></g></g><g class="edgeLabel"><g class="label" data-id="edge13" transform="translate(0, 0)"><foreignObject width="0" height="0"><div xmlns="http://www.w3.org/1999/xhtml" class="labelBkg" style="display: table-cell; white-space: nowrap; line-height: 1.5; max-width: 200px; text-align: center;"><span class="edgeLabel"></span></div></foreignObject></g></g></g><g class="nodes"><g class="node default" id="my-svg-state-Voting_start-13" data-look="classic" transform="translate(193.5, 52.5)"><circle class="state-start" r="7" width="14" height="14"/></g><g class="node  statediagram-state" id="my-svg-state-castVote-11" data-look="classic" transform="translate(81.6875, 154.5)"><rect class="basic label-container" style="" rx="5" ry="5" x="-38.6875" y="-20" width="77.375" height="40"/><g class="label" style="" transform="translate(-30.6875, -12)"><rect/><foreignObject width="61.375" height="24"><div xmlns="http://www.w3.org/1999/xhtml" style="display: table-cell; white-space: nowrap; line-height: 1.5; max-width: 200px; text-align: center;"><span class="nodeLabel markdown-node-label"><p>castVote</p></span></div></foreignObject></g></g><g class="node  statediagram-state" id="my-svg-state-vote-12" data-look="classic" transform="translate(193.5, 154.5)"><rect class="basic label-container" style="" rx="5" ry="5" x="-23.125" y="-20" width="46.25" height="40"/><g class="label" style="" transform="translate(-15.125, -12)"><rect/><foreignObject width="30.25" height="24"><div xmlns="http://www.w3.org/1999/xhtml" style="display: table-cell; white-space: nowrap; line-height: 1.5; max-width: 200px; text-align: center;"><span class="nodeLabel markdown-node-label"><p>vote</p></span></div></foreignObject></g></g><g class="node  statediagram-state" id="my-svg-state-getCandidate-13" data-look="classic" transform="translate(322.21875, 154.5)"><rect class="basic label-container" style="" rx="5" ry="5" x="-55.59375" y="-20" width="111.1875" height="40"/><g class="label" style="" transform="translate(-47.59375, -12)"><rect/><foreignObject width="95.1875" height="24"><div xmlns="http://www.w3.org/1999/xhtml" style="display: table-cell; white-space: nowrap; line-height: 1.5; max-width: 200px; text-align: center;"><span class="nodeLabel markdown-node-label"><p>getCandidate</p></span></div></foreignObject></g></g></g></g><g class="root" transform="translate(501.0390625, 718)"><g class="clusters"><g class="statediagram-state statediagram-cluster" id="my-svg-state-Ended-21" data-id="Ended" data-look="classic"><g><rect class="outer" x="8" y="8" width="623.546875" height="204" data-look="classic"/></g><g class="cluster-label" transform="translate(296.640625, 9)"><foreignObject width="46.265625" height="24"><div xmlns="http://www.w3.org/1999/xhtml" style="display: table-cell; white-space: nowrap; line-height: 1.5;"><span class="nodeLabel"><p>Ended</p></span></div></foreignObject></g><rect class="inner" x="8" y="34" width="623.546875" height="174"/></g></g><g class="edgePaths"><path d="M292.492,54.11L262.248,61.258C232.003,68.407,171.513,82.703,141.268,96.102C111.023,109.5,111.023,122,111.023,128.25L111.023,134.5" id="my-svg-edge15" class="edge-thickness-normal edge-pattern-solid transition" style="fill:none;;;fill:none" data-edge="true" data-et="edge" data-id="edge15" data-points="W3sieCI6MjkyLjQ5MjM3MjIwMTI4NjQsInkiOjU0LjExMDA4MDgyNzQ0N30seyJ4IjoxMTEuMDIzNDM3NSwieSI6OTd9LHsieCI6MTExLjAyMzQzNzUsInkiOjEzNC41fV0=" data-look="classic" marker-end="url(#my-svg_stateDiagram-barbEnd)"/><path d="M299.305,59.5L299.305,65.75C299.305,72,299.305,84.5,299.305,97C299.305,109.5,299.305,122,299.305,128.25L299.305,134.5" id="my-svg-edge16" class="edge-thickness-normal edge-pattern-solid transition" style="fill:none;;;fill:none" data-edge="true" data-et="edge" data-id="edge16" data-points="W3sieCI6Mjk5LjMwNDY4NzUsInkiOjU5LjV9LHsieCI6Mjk5LjMwNDY4NzUsInkiOjk3fSx7IngiOjI5OS4zMDQ2ODc1LCJ5IjoxMzQuNX1d" data-look="classic" marker-end="url(#my-svg_stateDiagram-barbEnd)"/><path d="M306.151,53.959L339.801,61.133C373.452,68.306,440.753,82.653,474.404,96.077C508.055,109.5,508.055,122,508.055,128.25L508.055,134.5" id="my-svg-edge17" class="edge-thickness-normal edge-pattern-solid transition" style="fill:none;;;fill:none" data-edge="true" data-et="edge" data-id="edge17" data-points="W3sieCI6MzA2LjE1MDg2MDMzOTQ3OTU1LCJ5Ijo1My45NTk0MjM2NzExNzA0ODR9LHsieCI6NTA4LjA1NDY4NzUsInkiOjk3fSx7IngiOjUwOC4wNTQ2ODc1LCJ5IjoxMzQuNX1d" data-look="classic" marker-end="url(#my-svg_stateDiagram-barbEnd)"/></g><g class="edgeLabels"><g class="edgeLabel"><g class="label" data-id="edge15" transform="translate(0, 0)"><foreignObject width="0" height="0"><div xmlns="http://www.w3.org/1999/xhtml" class="labelBkg" style="display: table-cell; white-space: nowrap; line-height: 1.5; max-width: 200px; text-align: center;"><span class="edgeLabel"></span></div></foreignObject></g></g><g class="edgeLabel"><g class="label" data-id="edge16" transform="translate(0, 0)"><foreignObject width="0" height="0"><div xmlns="http://www.w3.org/1999/xhtml" class="labelBkg" style="display: table-cell; white-space: nowrap; line-height: 1.5; max-width: 200px; text-align: center;"><span class="edgeLabel"></span></div></foreignObject></g></g><g class="edgeLabel"><g class="label" data-id="edge17" transform="translate(0, 0)"><foreignObject width="0" height="0"><div xmlns="http://www.w3.org/1999/xhtml" class="labelBkg" style="display: table-cell; white-space: nowrap; line-height: 1.5; max-width: 200px; text-align: center;"><span class="edgeLabel"></span></div></foreignObject></g></g></g><g class="nodes"><g class="node default" id="my-svg-state-Ended_start-17" data-look="classic" transform="translate(299.3046875, 52.5)"><circle class="state-start" r="7" width="14" height="14"/></g><g class="node  statediagram-state" id="my-svg-state-startNewElection-15" data-look="classic" transform="translate(111.0234375, 154.5)"><rect class="basic label-container" style="" rx="5" ry="5" x="-68.0234375" y="-20" width="136.046875" height="40"/><g class="label" style="" transform="translate(-60.0234375, -12)"><rect/><foreignObject width="120.046875" height="24"><div xmlns="http://www.w3.org/1999/xhtml" style="display: table-cell; white-space: nowrap; line-height: 1.5; max-width: 200px; text-align: center;"><span class="nodeLabel markdown-node-label"><p>startNewElection</p></span></div></foreignObject></g></g><g class="node  statediagram-state" id="my-svg-state-getElectionResult-16" data-look="classic" transform="translate(299.3046875, 154.5)"><rect class="basic label-container" style="" rx="5" ry="5" x="-70.2578125" y="-20" width="140.515625" height="40"/><g class="label" style="" transform="translate(-62.2578125, -12)"><rect/><foreignObject width="124.515625" height="24"><div xmlns="http://www.w3.org/1999/xhtml" style="display: table-cell; white-space: nowrap; line-height: 1.5; max-width: 200px; text-align: center;"><span class="nodeLabel markdown-node-label"><p>getElectionResult</p></span></div></foreignObject></g></g><g class="node  statediagram-state" id="my-svg-state-getHistoricalCandidate-17" data-look="classic" transform="translate(508.0546875, 154.5)"><rect class="basic label-container" style="" rx="5" ry="5" x="-88.4921875" y="-20" width="176.984375" height="40"/><g class="label" style="" transform="translate(-80.4921875, -12)"><rect/><foreignObject width="160.984375" height="24"><div xmlns="http://www.w3.org/1999/xhtml" style="display: table-cell; white-space: nowrap; line-height: 1.5; max-width: 200px; text-align: center;"><span class="nodeLabel markdown-node-label"><p>getHistoricalCandidate</p></span></div></foreignObject></g></g></g></g><g class="node statediagram-note" id="my-svg-state-Registration----note-19" data-look="classic" transform="translate(158, 500)"><g class="basic label-container outer-path"><path d="M-115 -75 L115 -75 L115 75 L-115 75" stroke="none" stroke-width="0" fill="#fff5ad" style=""/><path d="M-115 -75 C-58.15413444839386 -75, -1.3082688967877232 -75, 115 -75 M-115 -75 C-59.606370121269585 -75, -4.212740242539169 -75, 115 -75 M115 -75 C115 -20.068558042775372, 115 34.862883914449256, 115 75 M115 -75 C115 -18.784628318541387, 115 37.43074336291723, 115 75 M115 75 C32.06410509798478 75, -50.87178980403044 75, -115 75 M115 75 C44.14346742341087 75, -26.713065153178263 75, -115 75 M-115 75 C-115 24.170594844562224, -115 -26.658810310875552, -115 -75 M-115 75 C-115 21.935517701744565, -115 -31.12896459651087, -115 -75" stroke="#aaaa33" stroke-width="1.3" fill="none" stroke-dasharray="0 0" style=""/></g><g class="label noteLabel" style="" transform="translate(-100, -60)"><rect/><foreignObject width="200" height="120"><div xmlns="http://www.w3.org/1999/xhtml" style="display: table; white-space: break-spaces; line-height: 1.5; max-width: 200px; text-align: center; width: 200px;"><span class="nodeLabel markdown-node-label"><p>Merkle roots can be updated in<br />Created and Registration phases.<br />Frozen once Voting begins.</p></span></div></foreignObject></g></g><g class="node statediagram-note" id="my-svg-state-Voting----note-20" data-look="classic" transform="translate(328, 828)"><g class="basic label-container outer-path"><path d="M-111.0390625 -51 L111.0390625 -51 L111.0390625 51 L-111.0390625 51" stroke="none" stroke-width="0" fill="#fff5ad" style=""/><path d="M-111.0390625 -51 C-40.25128361645076 -51, 30.536495267098474 -51, 111.0390625 -51 M-111.0390625 -51 C-37.08639444347351 -51, 36.86627361305298 -51, 111.0390625 -51 M111.0390625 -51 C111.0390625 -24.373632012419574, 111.0390625 2.252735975160853, 111.0390625 51 M111.0390625 -51 C111.0390625 -27.831792473613376, 111.0390625 -4.663584947226752, 111.0390625 51 M111.0390625 51 C36.33321498039086 51, -38.37263253921827 51, -111.0390625 51 M111.0390625 51 C58.32573911718848 51, 5.612415734376967 51, -111.0390625 51 M-111.0390625 51 C-111.0390625 29.077419527469292, -111.0390625 7.154839054938584, -111.0390625 -51 M-111.0390625 51 C-111.0390625 10.696810644715931, -111.0390625 -29.606378710568137, -111.0390625 -51" stroke="#aaaa33" stroke-width="1.3" fill="none" stroke-dasharray="0 0" style=""/></g><g class="label noteLabel" style="" transform="translate(-96.0390625, -36)"><rect/><foreignObject width="192.078125" height="72"><div xmlns="http://www.w3.org/1999/xhtml" style="display: table-cell; white-space: nowrap; line-height: 1.5; max-width: 200px; text-align: center;"><span class="nodeLabel markdown-node-label"><p>Merkle proof is required.<br />At least 2 female GM votes<br />enforced in castVote.</p></span></div></foreignObject></g></g><g class="node statediagram-note" id="my-svg-state-Ended----note-21" data-look="classic" transform="translate(820.8125, 1117)"><g class="basic label-container outer-path"><path d="M-115 -87 L115 -87 L115 87 L-115 87" stroke="none" stroke-width="0" fill="#fff5ad" style=""/><path d="M-115 -87 C-54.56230335908167 -87, 5.875393281836665 -87, 115 -87 M-115 -87 C-66.28817739331015 -87, -17.5763547866203 -87, 115 -87 M115 -87 C115 -23.283581676389858, 115 40.432836647220284, 115 87 M115 -87 C115 -18.447786537011623, 115 50.10442692597675, 115 87 M115 87 C42.444362745285815 87, -30.11127450942837 87, -115 87 M115 87 C48.47301372616528 87, -18.053972547669446 87, -115 87 M-115 87 C-115 26.039640852417712, -115 -34.920718295164576, -115 -87 M-115 87 C-115 36.457343686537385, -115 -14.08531262692523, -115 -87" stroke="#aaaa33" stroke-width="1.3" fill="none" stroke-dasharray="0 0" style=""/></g><g class="label noteLabel" style="" transform="translate(-100, -72)"><rect/><foreignObject width="200" height="144"><div xmlns="http://www.w3.org/1999/xhtml" style="display: table; white-space: break-spaces; line-height: 1.5; max-width: 200px; text-align: center; width: 200px;"><span class="nodeLabel markdown-node-label"><p>Winner algorithm in startNewElection:<br />President &amp; Secretary: highest votes.<br />GM: 2-pass (2 female, then 3 any).</p></span></div></foreignObject></g></g></g></g></g><defs><filter id="my-svg-drop-shadow" height="130%" width="130%"><feDropShadow dx="4" dy="4" stdDeviation="0" flood-opacity="0.06" flood-color="#000000"/></filter></defs><defs><filter id="my-svg-drop-shadow-small" height="150%" width="150%"><feDropShadow dx="2" dy="2" stdDeviation="0" flood-opacity="0.06" flood-color="#000000"/></filter></defs><text text-anchor="middle" x="759.265625" y="-25" class="statediagramTitleText">State Machine — Election3.sol Phase Transitions</text></svg>